<svg xmlns="http://www.w3.org/2000/svg" width="46.2" height="56.75" viewBox="0 0 46.2 56.75">
	<style type="text/css">
		.st0{fill:#ffffff;}
	</style>
	<path class="st0" d="M31.45,9.06C33.43,6.66 34.76,3.32 34.4,0C31.54,0.11 28.09,1.9 26.04,4.3C24.2,6.42 22.59,9.82 23.03,13.07C26.21,13.32 29.47,11.46 31.45,9.06M38.59,30.14C38.67,38.73 46.12,41.59 46.21,41.63C46.14,41.83 45.01,45.7 42.28,49.7C39.91,53.16 37.46,56.6 33.59,56.67C29.79,56.74 28.57,54.42 24.22,54.42C19.88,54.42 18.52,56.6 14.93,56.74C11.19,56.88 8.35,53 5.97,49.56C1.09,42.51 -2.62,29.65 2.37,20.97C4.85,16.65 9.29,13.92 14.11,13.85C17.78,13.78 21.24,16.32 23.48,16.32C25.72,16.32 29.92,13.27 34.34,13.72C36.19,13.79 41.39,14.46 44.72,19.35C44.45,19.51 38.53,22.97 38.59,30.14"/>
</svg>